<svg xmlns="http://www.w3.org/2000/svg" viewBox="0 0 512 512" width="200" height="200">
  <path fill="#6C63FF" d="M384,32H384c-17.67,0-32,14.33-32,32v64c0,17.67,14.33,32,32,32h32v-32c17.67,0,32-14.33,32-32
    s-14.33-32-32-32V64C416,46.33,401.67,32,384,32z"/>
  <path fill="#4F46E5" d="M256,32H256c-17.67,0-32,14.33-32,32v32c-17.67,0-32,14.33-32,32s14.33,32,32,32v32h64V96
    c17.67,0,32-14.33,32-32s-14.33-32-32-32V32H256z"/>
  <path fill="#818CF8" d="M128,32H128C110.33,32,96,46.33,96,64v32c-17.67,0-32,14.33-32,32s14.33,32,32,32v32h64V96
    c17.67,0,32-14.33,32-32s-14.33-32-32-32V32H128z"/>
  <path fill="#4F46E5" d="M384,160h-32c-17.67,0-32,14.33-32,32v64h64v32c0,17.67,14.33,32,32,32s32-14.33,32-32v-32h32V192
    c0-17.67-14.33-32-32-32H384z"/>
  <path fill="#818CF8" d="M256,160h-64v64c-17.67,0-32,14.33-32,32s14.33,32,32,32v64h64v-64c17.67,0,32-14.33,32-32
    s-14.33-32-32-32V160z"/>
  <path fill="#6C63FF" d="M128,160H96c-17.67,0-32,14.33-32,32v64h64v32c0,17.67,14.33,32,32,32s32-14.33,32-32v-32h32V192
    c0-17.67-14.33-32-32-32H128z"/>
  <path fill="#818CF8" d="M384,288h-32c-17.67,0-32,14.33-32,32v64h64v32c0,17.67,14.33,32,32,32s32-14.33,32-32v-32h32V320
    c0-17.67-14.33-32-32-32H384z"/>
  <path fill="#6C63FF" d="M256,288h-64v64c-17.67,0-32,14.33-32,32s14.33,32,32,32v64h64v-64c17.67,0,32-14.33,32-32
    s-14.33-32-32-32V288z"/>
  <path fill="#4F46E5" d="M128,288H96c-17.67,0-32,14.33-32,32v64h64v32c0,17.67,14.33,32,32,32s32-14.33,32-32v-32h32V320
    c0-17.67-14.33-32-32-32H128z"/>
</svg>