<svg t="1720417278524" class="icon" viewBox="0 0 1024 1024" version="1.1" xmlns="http://www.w3.org/2000/svg" p-id="4456" width="200" height="200"><path d="M750.933333 211.626667C744.106667 92.16 600.746667 0 529.066667 0 453.973333 0 409.6 27.306667 409.6 68.266667c0 10.24 6.826667 20.48 17.066667 34.133333h-3.413334c-44.373333-3.413333-81.92-3.413333-102.4 13.653333-10.24 10.24-13.653333 23.893333-13.653333 37.546667 0 37.546667 17.066667 58.026667 37.546667 68.266667-75.093333 40.96-150.186667 150.186667-194.56 273.066666l-54.613334-78.506666c-6.826667-6.826667-17.066667-10.24-23.893333-3.413334-6.826667 6.826667-10.24 17.066667-3.413333 23.893334l68.266666 102.4v6.826666L23.893333 481.28c-6.826667-3.413333-10.24-3.413333-17.066666 0-3.413333 3.413333-6.826667 6.826667-6.826667 13.653333v68.266667c0 10.24 6.826667 17.066667 17.066667 17.066667H102.4l-61.44 37.546666c-6.826667 3.413333-10.24 13.653333-6.826667 23.893334 6.826667 3.413333 10.24 6.826667 17.066667 6.826666 3.413333 0 6.826667 0 10.24-3.413333l64.853333-40.96c-3.413333 23.893333-6.826667 51.2-6.826666 75.093333 0 235.52 290.133333 341.333333 494.933333 341.333334 249.173333 0 409.6-160.426667 409.6-409.6 0-238.933333-225.28-372.053333-273.066667-399.36z m143.36 365.226666c10.24 6.826667 10.24 13.653333 10.24 30.72-6.826667 0-13.653333 3.413333-17.066666 3.413334 0-10.24-6.826667-17.066667-13.653334-23.893334l20.48-10.24zM696.32 785.066667c10.24 3.413333 23.893333 6.826667 34.133333 10.24-27.306667 13.653333-54.613333 30.72-64.853333 40.96-3.413333 3.413333-3.413333 3.413333-3.413333 6.826666-23.893333-17.066667-44.373333-34.133333-47.786667-54.613333 23.893333-20.48 44.373333-17.066667 81.92-3.413333z m92.16 17.066666c20.48 0 37.546667 3.413333 54.613333 6.826667-37.546667 40.96-78.506667 64.853333-95.573333 75.093333-17.066667-6.826667-37.546667-13.653333-58.026667-27.306666 13.653333-6.826667 64.853333-37.546667 98.986667-54.613334z m-3.413333-34.133333c-30.72 0-54.613333-6.826667-78.506667-17.066667-20.48-6.826667-37.546667-13.653333-58.026667-13.653333h-13.653333c30.72-37.546667 92.16-78.506667 129.706667-92.16 51.2 23.893333 167.253333 116.053333 170.666666 167.253333-20.48-13.653333-78.506667-44.373333-150.186666-44.373333z m-184.32-136.533333c0-3.413333-3.413333-6.826667-3.413334-10.24-6.826667-3.413333-17.066667-23.893333-17.066666-40.96 0-10.24 3.413333-20.48 10.24-30.72l54.613333 30.72c-17.066667 3.413333-30.72 17.066667-30.72 34.133333 0 6.826667 3.413333 13.653333 6.826667 17.066667h-20.48z m71.68 6.826666c6.826667-6.826667 10.24-13.653333 10.24-23.893333 0-3.413333 0-10.24-3.413334-13.653333l47.786667 27.306666c-10.24 3.413333-20.48 10.24-30.72 17.066667-6.826667-3.413333-13.653333-6.826667-23.893333-6.826667z m129.706666-6.826666l17.066667-10.24c3.413333 10.24 6.826667 17.066667 13.653333 23.893333l-6.826666 6.826667c-6.826667-10.24-13.653333-17.066667-23.893334-20.48z m-34.133333-20.48l-215.04-122.88 17.066667-37.546667 187.733333 126.293333c6.826667 3.413333 13.653333 3.413333 17.066667 0l177.493333-112.64c3.413333 10.24 10.24 20.48 13.653333 27.306667l-197.973333 119.466667zM34.133333 546.133333v-20.48l37.546667 20.48H34.133333z m119.466667 136.533334c0-215.04 150.186667-443.733333 256-443.733334h17.066667c10.24 0 17.066667-6.826667 17.066666-17.066666s-6.826667-17.066667-17.066666-17.066667C351.573333 204.8 341.333333 180.906667 341.333333 153.6c0-6.826667 3.413333-10.24 3.413334-10.24 10.24-10.24 44.373333-6.826667 75.093333-6.826667h40.96c44.373333 34.133333 105.813333 68.266667 136.533333 68.266667 10.24 0 17.066667-6.826667 17.066667-17.066667s-6.826667-17.066667-17.066667-17.066666c-40.96 0-150.186667-81.92-153.6-102.4 0-20.48 34.133333-34.133333 85.333334-34.133334C583.68 34.133333 716.8 116.053333 716.8 221.866667c0 6.826667 3.413333 13.653333 10.24 13.653333 3.413333 0 136.533333 68.266667 211.626667 197.973333l-170.666667 109.226667-194.56-129.706667c-3.413333-3.413333-10.24-3.413333-13.653333-3.413333-3.413333 0-10.24 3.413333-10.24 10.24l-34.133334 68.266667c-3.413333 6.826667 0 17.066667 6.826667 23.893333l40.96 23.893333c-10.24 10.24-17.066667 27.306667-17.066667 44.373334 0 23.893333 10.24 47.786667 20.48 61.44-6.826667 3.413333-13.653333 6.826667-17.066666 10.24-6.826667 6.826667-6.826667 17.066667 0 23.893333s17.066667 6.826667 23.893333 0c10.24-10.24 61.44-10.24 88.746667-6.826667-20.48 13.653333-37.546667 30.72-51.2 47.786667-126.293333 0-242.346667 54.613333-351.573334 163.84-61.44-47.786667-105.813333-112.64-105.813333-197.973333zM614.4 989.866667c-105.813333 0-232.106667-27.306667-327.68-88.746667 92.16-92.16 194.56-143.36 300.373333-150.186667-3.413333 10.24-6.826667 20.48-6.826666 34.133334 0 78.506667 146.773333 129.706667 163.84 136.533333h6.826666c3.413333 0 6.826667 0 6.826667-3.413333 3.413333 0 68.266667-37.546667 119.466667-95.573334 20.48 10.24 37.546667 17.066667 44.373333 23.893334-64.853333 88.746667-170.666667 143.36-307.2 143.36z m344.746667-211.626667c-20.48-37.546667-61.44-78.506667-102.4-109.226667 13.653333-13.653333 30.72-27.306667 64.853333-27.306666 3.413333 0 10.24-3.413333 13.653333-6.826667s3.413333-6.826667 3.413334-13.653333v-13.653334c0-17.066667 0-34.133333-13.653334-51.2l54.613334-30.72c6.826667 27.306667 10.24 58.026667 10.24 88.746667 0 61.44-10.24 116.053333-30.72 163.84z" fill="" p-id="4457"></path></svg>
